<mxfile host="65bd71144e">
    <diagram id="5qJWp4lmSTnSCF0ZtOlm" name="Page-1">
        <mxGraphModel dx="588" dy="560" grid="1" gridSize="10" guides="1" tooltips="1" connect="1" arrows="1" fold="1" page="1" pageScale="1" pageWidth="850" pageHeight="1100" math="0" shadow="0">
            <root>
                <mxCell id="0"/>
                <mxCell id="1" parent="0"/>
                <mxCell id="39" style="edgeStyle=none;shape=connector;rounded=1;html=1;labelBackgroundColor=default;strokeColor=default;fontFamily=Helvetica;fontSize=11;fontColor=default;endArrow=none;endFill=0;" parent="1" source="2" target="3" edge="1">
                    <mxGeometry relative="1" as="geometry"/>
                </mxCell>
                <mxCell id="40" style="edgeStyle=none;shape=connector;rounded=1;html=1;labelBackgroundColor=default;strokeColor=default;fontFamily=Helvetica;fontSize=11;fontColor=default;endArrow=none;endFill=0;" parent="1" source="2" target="6" edge="1">
                    <mxGeometry relative="1" as="geometry"/>
                </mxCell>
                <mxCell id="41" style="edgeStyle=none;shape=connector;rounded=1;html=1;labelBackgroundColor=default;strokeColor=default;fontFamily=Helvetica;fontSize=11;fontColor=default;endArrow=none;endFill=0;" parent="1" source="2" target="8" edge="1">
                    <mxGeometry relative="1" as="geometry"/>
                </mxCell>
                <mxCell id="42" style="edgeStyle=none;shape=connector;rounded=1;html=1;labelBackgroundColor=default;strokeColor=default;fontFamily=Helvetica;fontSize=11;fontColor=default;endArrow=none;endFill=0;" parent="1" source="2" target="9" edge="1">
                    <mxGeometry relative="1" as="geometry"/>
                </mxCell>
                <mxCell id="2" value="A" style="ellipse;whiteSpace=wrap;html=1;aspect=fixed;fillColor=#f8cecc;strokeColor=#b85450;" parent="1" vertex="1">
                    <mxGeometry x="200" y="200" width="40" height="40" as="geometry"/>
                </mxCell>
                <mxCell id="43" style="edgeStyle=none;shape=connector;rounded=1;html=1;labelBackgroundColor=default;strokeColor=default;fontFamily=Helvetica;fontSize=11;fontColor=default;endArrow=none;endFill=0;" parent="1" source="3" target="6" edge="1">
                    <mxGeometry relative="1" as="geometry"/>
                </mxCell>
                <mxCell id="3" value="B" style="ellipse;whiteSpace=wrap;html=1;aspect=fixed;fillColor=#f8cecc;strokeColor=#b85450;fontStyle=0" parent="1" vertex="1">
                    <mxGeometry x="280" y="180" width="40" height="40" as="geometry"/>
                </mxCell>
                <mxCell id="44" style="edgeStyle=none;shape=connector;rounded=1;html=1;labelBackgroundColor=default;strokeColor=default;fontFamily=Helvetica;fontSize=11;fontColor=default;endArrow=none;endFill=0;" parent="1" source="4" target="5" edge="1">
                    <mxGeometry relative="1" as="geometry"/>
                </mxCell>
                <mxCell id="45" style="edgeStyle=none;shape=connector;rounded=1;html=1;labelBackgroundColor=default;strokeColor=default;fontFamily=Helvetica;fontSize=11;fontColor=default;endArrow=none;endFill=0;" parent="1" source="4" target="6" edge="1">
                    <mxGeometry relative="1" as="geometry"/>
                </mxCell>
                <mxCell id="46" style="edgeStyle=none;shape=connector;rounded=1;html=1;labelBackgroundColor=default;strokeColor=default;fontFamily=Helvetica;fontSize=11;fontColor=default;endArrow=none;endFill=0;" parent="1" source="4" target="7" edge="1">
                    <mxGeometry relative="1" as="geometry"/>
                </mxCell>
                <mxCell id="47" style="edgeStyle=none;shape=connector;rounded=1;html=1;labelBackgroundColor=default;strokeColor=default;fontFamily=Helvetica;fontSize=11;fontColor=default;endArrow=none;endFill=0;" parent="1" source="4" target="8" edge="1">
                    <mxGeometry relative="1" as="geometry"/>
                </mxCell>
                <mxCell id="48" style="edgeStyle=none;shape=connector;rounded=1;html=1;labelBackgroundColor=default;strokeColor=default;fontFamily=Helvetica;fontSize=11;fontColor=default;endArrow=none;endFill=0;" parent="1" source="4" target="9" edge="1">
                    <mxGeometry relative="1" as="geometry"/>
                </mxCell>
                <mxCell id="4" value="C" style="ellipse;whiteSpace=wrap;html=1;aspect=fixed;fillColor=#f8cecc;strokeColor=#b85450;fontStyle=0" parent="1" vertex="1">
                    <mxGeometry x="360" y="200" width="40" height="40" as="geometry"/>
                </mxCell>
                <mxCell id="49" style="edgeStyle=none;shape=connector;rounded=1;html=1;labelBackgroundColor=default;strokeColor=default;fontFamily=Helvetica;fontSize=11;fontColor=default;endArrow=none;endFill=0;" parent="1" source="5" target="7" edge="1">
                    <mxGeometry relative="1" as="geometry"/>
                </mxCell>
                <mxCell id="50" style="edgeStyle=none;shape=connector;rounded=1;html=1;labelBackgroundColor=default;strokeColor=default;fontFamily=Helvetica;fontSize=11;fontColor=default;endArrow=none;endFill=0;" parent="1" source="5" target="8" edge="1">
                    <mxGeometry relative="1" as="geometry"/>
                </mxCell>
                <mxCell id="51" style="edgeStyle=none;shape=connector;rounded=1;html=1;labelBackgroundColor=default;strokeColor=default;fontFamily=Helvetica;fontSize=11;fontColor=default;endArrow=none;endFill=0;" parent="1" source="5" target="9" edge="1">
                    <mxGeometry relative="1" as="geometry"/>
                </mxCell>
                <mxCell id="5" value="D" style="ellipse;whiteSpace=wrap;html=1;aspect=fixed;fillColor=#f8cecc;strokeColor=#b85450;fontStyle=0" parent="1" vertex="1">
                    <mxGeometry x="380" y="280" width="40" height="40" as="geometry"/>
                </mxCell>
                <mxCell id="52" style="edgeStyle=none;shape=connector;rounded=1;html=1;labelBackgroundColor=default;strokeColor=default;fontFamily=Helvetica;fontSize=11;fontColor=default;endArrow=none;endFill=0;" parent="1" source="6" target="8" edge="1">
                    <mxGeometry relative="1" as="geometry"/>
                </mxCell>
                <mxCell id="53" style="edgeStyle=none;shape=connector;rounded=1;html=1;labelBackgroundColor=default;strokeColor=default;fontFamily=Helvetica;fontSize=11;fontColor=default;endArrow=none;endFill=0;" parent="1" source="6" target="9" edge="1">
                    <mxGeometry relative="1" as="geometry"/>
                </mxCell>
                <mxCell id="6" value="E" style="ellipse;whiteSpace=wrap;html=1;aspect=fixed;fillColor=#f8cecc;strokeColor=#b85450;fontStyle=0" parent="1" vertex="1">
                    <mxGeometry x="360" y="360" width="40" height="40" as="geometry"/>
                </mxCell>
                <mxCell id="54" style="edgeStyle=none;shape=connector;rounded=1;html=1;labelBackgroundColor=default;strokeColor=default;fontFamily=Helvetica;fontSize=11;fontColor=default;endArrow=none;endFill=0;" parent="1" source="7" target="8" edge="1">
                    <mxGeometry relative="1" as="geometry"/>
                </mxCell>
                <mxCell id="7" value="F" style="ellipse;whiteSpace=wrap;html=1;aspect=fixed;fillColor=#f8cecc;strokeColor=#b85450;fontStyle=0" parent="1" vertex="1">
                    <mxGeometry x="280" y="380" width="40" height="40" as="geometry"/>
                </mxCell>
                <mxCell id="55" style="edgeStyle=none;shape=connector;rounded=1;html=1;labelBackgroundColor=default;strokeColor=default;fontFamily=Helvetica;fontSize=11;fontColor=default;endArrow=none;endFill=0;" parent="1" source="8" target="9" edge="1">
                    <mxGeometry relative="1" as="geometry"/>
                </mxCell>
                <mxCell id="8" value="G" style="ellipse;whiteSpace=wrap;html=1;aspect=fixed;fillColor=#f8cecc;strokeColor=#b85450;fontStyle=0" parent="1" vertex="1">
                    <mxGeometry x="200" y="360" width="40" height="40" as="geometry"/>
                </mxCell>
                <mxCell id="9" value="H" style="ellipse;whiteSpace=wrap;html=1;aspect=fixed;fillColor=#f8cecc;strokeColor=#b85450;fontStyle=0" parent="1" vertex="1">
                    <mxGeometry x="180" y="280" width="40" height="40" as="geometry"/>
                </mxCell>
                <mxCell id="62" value="1-3" style="text;html=1;strokeColor=none;fillColor=none;align=center;verticalAlign=middle;whiteSpace=wrap;rounded=0;" vertex="1" parent="1">
                    <mxGeometry y="520" width="360" height="40" as="geometry"/>
                </mxCell>
                <mxCell id="67" style="edgeStyle=none;html=1;endArrow=none;endFill=0;" edge="1" parent="1" source="65" target="66">
                    <mxGeometry relative="1" as="geometry"/>
                </mxCell>
                <mxCell id="79" style="edgeStyle=none;shape=connector;rounded=1;html=1;labelBackgroundColor=default;strokeColor=default;fontFamily=Helvetica;fontSize=11;fontColor=default;endArrow=none;endFill=0;" edge="1" parent="1" source="65" target="69">
                    <mxGeometry relative="1" as="geometry"/>
                </mxCell>
                <mxCell id="80" style="edgeStyle=none;shape=connector;rounded=1;html=1;labelBackgroundColor=default;strokeColor=default;fontFamily=Helvetica;fontSize=11;fontColor=default;endArrow=none;endFill=0;" edge="1" parent="1" source="65" target="68">
                    <mxGeometry relative="1" as="geometry"/>
                </mxCell>
                <mxCell id="81" style="edgeStyle=none;shape=connector;rounded=1;html=1;labelBackgroundColor=default;strokeColor=default;fontFamily=Helvetica;fontSize=11;fontColor=default;endArrow=none;endFill=0;" edge="1" parent="1" source="65" target="70">
                    <mxGeometry relative="1" as="geometry"/>
                </mxCell>
                <mxCell id="65" value="1" style="ellipse;whiteSpace=wrap;html=1;aspect=fixed;fillColor=#f8cecc;strokeColor=#b85450;fontStyle=0" vertex="1" parent="1">
                    <mxGeometry x="40" y="580" width="40" height="40" as="geometry"/>
                </mxCell>
                <mxCell id="82" style="edgeStyle=none;shape=connector;rounded=1;html=1;labelBackgroundColor=default;strokeColor=default;fontFamily=Helvetica;fontSize=11;fontColor=default;endArrow=none;endFill=0;" edge="1" parent="1" source="66" target="68">
                    <mxGeometry relative="1" as="geometry"/>
                </mxCell>
                <mxCell id="83" style="edgeStyle=none;shape=connector;rounded=1;html=1;labelBackgroundColor=default;strokeColor=default;fontFamily=Helvetica;fontSize=11;fontColor=default;endArrow=none;endFill=0;" edge="1" parent="1" source="66" target="69">
                    <mxGeometry relative="1" as="geometry"/>
                </mxCell>
                <mxCell id="66" value="2" style="ellipse;whiteSpace=wrap;html=1;aspect=fixed;fillColor=#f8cecc;strokeColor=#b85450;fontStyle=0" vertex="1" parent="1">
                    <mxGeometry x="120" y="560" width="40" height="40" as="geometry"/>
                </mxCell>
                <mxCell id="84" style="edgeStyle=none;shape=connector;rounded=1;html=1;labelBackgroundColor=default;strokeColor=default;fontFamily=Helvetica;fontSize=11;fontColor=default;endArrow=none;endFill=0;" edge="1" parent="1" source="68" target="71">
                    <mxGeometry relative="1" as="geometry"/>
                </mxCell>
                <mxCell id="68" value="3" style="ellipse;whiteSpace=wrap;html=1;aspect=fixed;fillColor=#f8cecc;strokeColor=#b85450;fontStyle=0" vertex="1" parent="1">
                    <mxGeometry x="200" y="560" width="40" height="40" as="geometry"/>
                </mxCell>
                <mxCell id="85" style="edgeStyle=none;shape=connector;rounded=1;html=1;labelBackgroundColor=default;strokeColor=default;fontFamily=Helvetica;fontSize=11;fontColor=default;endArrow=none;endFill=0;" edge="1" parent="1" source="69" target="72">
                    <mxGeometry relative="1" as="geometry"/>
                </mxCell>
                <mxCell id="69" value="4" style="ellipse;whiteSpace=wrap;html=1;aspect=fixed;fillColor=#f8cecc;strokeColor=#b85450;fontStyle=0" vertex="1" parent="1">
                    <mxGeometry x="280" y="580" width="40" height="40" as="geometry"/>
                </mxCell>
                <mxCell id="86" style="edgeStyle=none;shape=connector;rounded=1;html=1;labelBackgroundColor=default;strokeColor=default;fontFamily=Helvetica;fontSize=11;fontColor=default;endArrow=none;endFill=0;" edge="1" parent="1" source="70" target="73">
                    <mxGeometry relative="1" as="geometry"/>
                </mxCell>
                <mxCell id="87" style="edgeStyle=none;shape=connector;rounded=1;html=1;labelBackgroundColor=default;strokeColor=default;fontFamily=Helvetica;fontSize=11;fontColor=default;endArrow=none;endFill=0;" edge="1" parent="1" source="70" target="74">
                    <mxGeometry relative="1" as="geometry"/>
                </mxCell>
                <mxCell id="70" value="5" style="ellipse;whiteSpace=wrap;html=1;aspect=fixed;fillColor=#f8cecc;strokeColor=#b85450;fontStyle=0" vertex="1" parent="1">
                    <mxGeometry x="300" y="660" width="40" height="40" as="geometry"/>
                </mxCell>
                <mxCell id="88" style="edgeStyle=none;shape=connector;rounded=1;html=1;labelBackgroundColor=default;strokeColor=default;fontFamily=Helvetica;fontSize=11;fontColor=default;endArrow=none;endFill=0;" edge="1" parent="1" source="71" target="78">
                    <mxGeometry relative="1" as="geometry"/>
                </mxCell>
                <mxCell id="71" value="6" style="ellipse;whiteSpace=wrap;html=1;aspect=fixed;fillColor=#f8cecc;strokeColor=#b85450;fontStyle=0" vertex="1" parent="1">
                    <mxGeometry x="300" y="740" width="40" height="40" as="geometry"/>
                </mxCell>
                <mxCell id="89" style="edgeStyle=none;shape=connector;rounded=1;html=1;labelBackgroundColor=default;strokeColor=default;fontFamily=Helvetica;fontSize=11;fontColor=default;endArrow=none;endFill=0;" edge="1" parent="1" source="72" target="77">
                    <mxGeometry relative="1" as="geometry"/>
                </mxCell>
                <mxCell id="72" value="7" style="ellipse;whiteSpace=wrap;html=1;aspect=fixed;fillColor=#f8cecc;strokeColor=#b85450;fontStyle=0" vertex="1" parent="1">
                    <mxGeometry x="280" y="820" width="40" height="40" as="geometry"/>
                </mxCell>
                <mxCell id="73" value="8" style="ellipse;whiteSpace=wrap;html=1;aspect=fixed;fillColor=#f8cecc;strokeColor=#b85450;fontStyle=0" vertex="1" parent="1">
                    <mxGeometry x="220" y="860" width="40" height="40" as="geometry"/>
                </mxCell>
                <mxCell id="74" value="9" style="ellipse;whiteSpace=wrap;html=1;aspect=fixed;fillColor=#f8cecc;strokeColor=#b85450;fontStyle=0" vertex="1" parent="1">
                    <mxGeometry x="140" y="880" width="40" height="40" as="geometry"/>
                </mxCell>
                <mxCell id="75" value="10" style="ellipse;whiteSpace=wrap;html=1;aspect=fixed;fillColor=#f8cecc;strokeColor=#b85450;fontStyle=0" vertex="1" parent="1">
                    <mxGeometry x="60" y="860" width="40" height="40" as="geometry"/>
                </mxCell>
                <mxCell id="76" value="11" style="ellipse;whiteSpace=wrap;html=1;aspect=fixed;fillColor=#f8cecc;strokeColor=#b85450;fontStyle=0" vertex="1" parent="1">
                    <mxGeometry y="800" width="40" height="40" as="geometry"/>
                </mxCell>
                <mxCell id="77" value="12" style="ellipse;whiteSpace=wrap;html=1;aspect=fixed;fillColor=#f8cecc;strokeColor=#b85450;fontStyle=0" vertex="1" parent="1">
                    <mxGeometry y="720" width="40" height="40" as="geometry"/>
                </mxCell>
                <mxCell id="78" value="13" style="ellipse;whiteSpace=wrap;html=1;aspect=fixed;fillColor=#f8cecc;strokeColor=#b85450;fontStyle=0" vertex="1" parent="1">
                    <mxGeometry y="650" width="40" height="40" as="geometry"/>
                </mxCell>
                <mxCell id="90" value="4-6" style="text;html=1;strokeColor=none;fillColor=none;align=center;verticalAlign=middle;whiteSpace=wrap;rounded=0;" vertex="1" parent="1">
                    <mxGeometry x="360" y="520" width="360" height="40" as="geometry"/>
                </mxCell>
                <mxCell id="116" style="edgeStyle=none;shape=connector;rounded=1;html=1;labelBackgroundColor=default;strokeColor=default;fontFamily=Helvetica;fontSize=11;fontColor=default;endArrow=none;endFill=0;" edge="1" parent="1" source="95" target="98">
                    <mxGeometry relative="1" as="geometry"/>
                </mxCell>
                <mxCell id="117" style="edgeStyle=none;shape=connector;rounded=1;html=1;labelBackgroundColor=default;strokeColor=default;fontFamily=Helvetica;fontSize=11;fontColor=default;endArrow=none;endFill=0;" edge="1" parent="1" source="95" target="100">
                    <mxGeometry relative="1" as="geometry"/>
                </mxCell>
                <mxCell id="118" style="edgeStyle=none;shape=connector;rounded=1;html=1;labelBackgroundColor=default;strokeColor=default;fontFamily=Helvetica;fontSize=11;fontColor=default;endArrow=none;endFill=0;" edge="1" parent="1" source="95" target="102">
                    <mxGeometry relative="1" as="geometry"/>
                </mxCell>
                <mxCell id="119" style="edgeStyle=none;shape=connector;rounded=1;html=1;labelBackgroundColor=default;strokeColor=default;fontFamily=Helvetica;fontSize=11;fontColor=default;endArrow=none;endFill=0;" edge="1" parent="1" source="95" target="105">
                    <mxGeometry relative="1" as="geometry"/>
                </mxCell>
                <mxCell id="95" value="1" style="ellipse;whiteSpace=wrap;html=1;aspect=fixed;fillColor=#f8cecc;strokeColor=#b85450;fontStyle=0" vertex="1" parent="1">
                    <mxGeometry x="400" y="580" width="40" height="40" as="geometry"/>
                </mxCell>
                <mxCell id="120" style="edgeStyle=none;shape=connector;rounded=1;html=1;labelBackgroundColor=default;strokeColor=default;fontFamily=Helvetica;fontSize=11;fontColor=default;endArrow=none;endFill=0;" edge="1" parent="1" source="98" target="102">
                    <mxGeometry relative="1" as="geometry"/>
                </mxCell>
                <mxCell id="98" value="2" style="ellipse;whiteSpace=wrap;html=1;aspect=fixed;fillColor=#f8cecc;strokeColor=#b85450;fontStyle=0" vertex="1" parent="1">
                    <mxGeometry x="480" y="560" width="40" height="40" as="geometry"/>
                </mxCell>
                <mxCell id="122" style="edgeStyle=none;shape=connector;rounded=1;html=1;labelBackgroundColor=default;strokeColor=default;fontFamily=Helvetica;fontSize=11;fontColor=default;endArrow=none;endFill=0;" edge="1" parent="1" source="100" target="105">
                    <mxGeometry relative="1" as="geometry"/>
                </mxCell>
                <mxCell id="100" value="3" style="ellipse;whiteSpace=wrap;html=1;aspect=fixed;fillColor=#f8cecc;strokeColor=#b85450;fontStyle=0" vertex="1" parent="1">
                    <mxGeometry x="560" y="560" width="40" height="40" as="geometry"/>
                </mxCell>
                <mxCell id="123" style="edgeStyle=none;shape=connector;rounded=1;html=1;labelBackgroundColor=default;strokeColor=default;fontFamily=Helvetica;fontSize=11;fontColor=default;endArrow=none;endFill=0;" edge="1" parent="1" source="102" target="109">
                    <mxGeometry relative="1" as="geometry"/>
                </mxCell>
                <mxCell id="102" value="4" style="ellipse;whiteSpace=wrap;html=1;aspect=fixed;fillColor=#f8cecc;strokeColor=#b85450;fontStyle=0" vertex="1" parent="1">
                    <mxGeometry x="630" y="590" width="40" height="40" as="geometry"/>
                </mxCell>
                <mxCell id="124" style="edgeStyle=none;shape=connector;rounded=1;html=1;labelBackgroundColor=default;strokeColor=default;fontFamily=Helvetica;fontSize=11;fontColor=default;endArrow=none;endFill=0;" edge="1" parent="1" source="105" target="110">
                    <mxGeometry relative="1" as="geometry"/>
                </mxCell>
                <mxCell id="125" style="edgeStyle=none;shape=connector;rounded=1;html=1;labelBackgroundColor=default;strokeColor=default;fontFamily=Helvetica;fontSize=11;fontColor=default;endArrow=none;endFill=0;" edge="1" parent="1" source="105" target="111">
                    <mxGeometry relative="1" as="geometry"/>
                </mxCell>
                <mxCell id="105" value="5" style="ellipse;whiteSpace=wrap;html=1;aspect=fixed;fillColor=#f8cecc;strokeColor=#b85450;fontStyle=0" vertex="1" parent="1">
                    <mxGeometry x="660" y="660" width="40" height="40" as="geometry"/>
                </mxCell>
                <mxCell id="126" style="edgeStyle=none;shape=connector;rounded=1;html=1;labelBackgroundColor=default;strokeColor=default;fontFamily=Helvetica;fontSize=11;fontColor=default;endArrow=none;endFill=0;" edge="1" parent="1" source="107" target="114">
                    <mxGeometry relative="1" as="geometry"/>
                </mxCell>
                <mxCell id="107" value="6" style="ellipse;whiteSpace=wrap;html=1;aspect=fixed;fillColor=#f8cecc;strokeColor=#b85450;fontStyle=0" vertex="1" parent="1">
                    <mxGeometry x="660" y="740" width="40" height="40" as="geometry"/>
                </mxCell>
                <mxCell id="127" style="edgeStyle=none;shape=connector;rounded=1;html=1;labelBackgroundColor=default;strokeColor=default;fontFamily=Helvetica;fontSize=11;fontColor=default;endArrow=none;endFill=0;" edge="1" parent="1" source="109" target="114">
                    <mxGeometry relative="1" as="geometry"/>
                </mxCell>
                <mxCell id="109" value="7" style="ellipse;whiteSpace=wrap;html=1;aspect=fixed;fillColor=#f8cecc;strokeColor=#b85450;fontStyle=0" vertex="1" parent="1">
                    <mxGeometry x="640" y="820" width="40" height="40" as="geometry"/>
                </mxCell>
                <mxCell id="110" value="8" style="ellipse;whiteSpace=wrap;html=1;aspect=fixed;fillColor=#f8cecc;strokeColor=#b85450;fontStyle=0" vertex="1" parent="1">
                    <mxGeometry x="580" y="860" width="40" height="40" as="geometry"/>
                </mxCell>
                <mxCell id="111" value="9" style="ellipse;whiteSpace=wrap;html=1;aspect=fixed;fillColor=#f8cecc;strokeColor=#b85450;fontStyle=0" vertex="1" parent="1">
                    <mxGeometry x="500" y="880" width="40" height="40" as="geometry"/>
                </mxCell>
                <mxCell id="112" value="10" style="ellipse;whiteSpace=wrap;html=1;aspect=fixed;fillColor=#f8cecc;strokeColor=#b85450;fontStyle=0" vertex="1" parent="1">
                    <mxGeometry x="420" y="860" width="40" height="40" as="geometry"/>
                </mxCell>
                <mxCell id="113" value="11" style="ellipse;whiteSpace=wrap;html=1;aspect=fixed;fillColor=#f8cecc;strokeColor=#b85450;fontStyle=0" vertex="1" parent="1">
                    <mxGeometry x="370" y="800" width="40" height="40" as="geometry"/>
                </mxCell>
                <mxCell id="114" value="12" style="ellipse;whiteSpace=wrap;html=1;aspect=fixed;fillColor=#f8cecc;strokeColor=#b85450;fontStyle=0" vertex="1" parent="1">
                    <mxGeometry x="360" y="720" width="40" height="40" as="geometry"/>
                </mxCell>
                <mxCell id="115" value="13" style="ellipse;whiteSpace=wrap;html=1;aspect=fixed;fillColor=#f8cecc;strokeColor=#b85450;fontStyle=0" vertex="1" parent="1">
                    <mxGeometry x="370" y="650" width="40" height="40" as="geometry"/>
                </mxCell>
                <mxCell id="153" value="7-9" style="text;html=1;strokeColor=none;fillColor=none;align=center;verticalAlign=middle;whiteSpace=wrap;rounded=0;" vertex="1" parent="1">
                    <mxGeometry x="720" y="520" width="360" height="40" as="geometry"/>
                </mxCell>
                <mxCell id="178" style="edgeStyle=none;shape=connector;rounded=1;html=1;labelBackgroundColor=default;strokeColor=default;fontFamily=Helvetica;fontSize=11;fontColor=default;endArrow=none;endFill=0;" edge="1" parent="1" source="158" target="160">
                    <mxGeometry relative="1" as="geometry"/>
                </mxCell>
                <mxCell id="179" style="edgeStyle=none;shape=connector;rounded=1;html=1;labelBackgroundColor=default;strokeColor=default;fontFamily=Helvetica;fontSize=11;fontColor=default;endArrow=none;endFill=0;" edge="1" parent="1" source="158" target="162">
                    <mxGeometry relative="1" as="geometry"/>
                </mxCell>
                <mxCell id="180" style="edgeStyle=none;shape=connector;rounded=1;html=1;labelBackgroundColor=default;strokeColor=default;fontFamily=Helvetica;fontSize=11;fontColor=default;endArrow=none;endFill=0;" edge="1" parent="1" source="158" target="167">
                    <mxGeometry relative="1" as="geometry"/>
                </mxCell>
                <mxCell id="158" value="1" style="ellipse;whiteSpace=wrap;html=1;aspect=fixed;fillColor=#f8cecc;strokeColor=#b85450;fontStyle=0" vertex="1" parent="1">
                    <mxGeometry x="760" y="580" width="40" height="40" as="geometry"/>
                </mxCell>
                <mxCell id="181" style="edgeStyle=none;shape=connector;rounded=1;html=1;labelBackgroundColor=default;strokeColor=default;fontFamily=Helvetica;fontSize=11;fontColor=default;endArrow=none;endFill=0;" edge="1" parent="1" source="160" target="164">
                    <mxGeometry relative="1" as="geometry"/>
                </mxCell>
                <mxCell id="160" value="2" style="ellipse;whiteSpace=wrap;html=1;aspect=fixed;fillColor=#f8cecc;strokeColor=#b85450;fontStyle=0" vertex="1" parent="1">
                    <mxGeometry x="840" y="560" width="40" height="40" as="geometry"/>
                </mxCell>
                <mxCell id="182" style="edgeStyle=none;shape=connector;rounded=1;html=1;labelBackgroundColor=default;strokeColor=default;fontFamily=Helvetica;fontSize=11;fontColor=default;endArrow=none;endFill=0;" edge="1" parent="1" source="162" target="167">
                    <mxGeometry relative="1" as="geometry"/>
                </mxCell>
                <mxCell id="183" style="edgeStyle=none;shape=connector;rounded=1;html=1;labelBackgroundColor=default;strokeColor=default;fontFamily=Helvetica;fontSize=11;fontColor=default;endArrow=none;endFill=0;" edge="1" parent="1" source="162" target="169">
                    <mxGeometry relative="1" as="geometry"/>
                </mxCell>
                <mxCell id="162" value="3" style="ellipse;whiteSpace=wrap;html=1;aspect=fixed;fillColor=#f8cecc;strokeColor=#b85450;fontStyle=0" vertex="1" parent="1">
                    <mxGeometry x="920" y="560" width="40" height="40" as="geometry"/>
                </mxCell>
                <mxCell id="184" style="edgeStyle=none;shape=connector;rounded=1;html=1;labelBackgroundColor=default;strokeColor=default;fontFamily=Helvetica;fontSize=11;fontColor=default;endArrow=none;endFill=0;" edge="1" parent="1" source="164" target="171">
                    <mxGeometry relative="1" as="geometry"/>
                </mxCell>
                <mxCell id="164" value="4" style="ellipse;whiteSpace=wrap;html=1;aspect=fixed;fillColor=#f8cecc;strokeColor=#b85450;fontStyle=0" vertex="1" parent="1">
                    <mxGeometry x="990" y="590" width="40" height="40" as="geometry"/>
                </mxCell>
                <mxCell id="185" style="edgeStyle=none;shape=connector;rounded=1;html=1;labelBackgroundColor=default;strokeColor=default;fontFamily=Helvetica;fontSize=11;fontColor=default;endArrow=none;endFill=0;" edge="1" parent="1" source="167" target="172">
                    <mxGeometry relative="1" as="geometry"/>
                </mxCell>
                <mxCell id="186" style="edgeStyle=none;shape=connector;rounded=1;html=1;labelBackgroundColor=default;strokeColor=default;fontFamily=Helvetica;fontSize=11;fontColor=default;endArrow=none;endFill=0;" edge="1" parent="1" source="167" target="174">
                    <mxGeometry relative="1" as="geometry"/>
                </mxCell>
                <mxCell id="187" style="edgeStyle=none;shape=connector;rounded=1;html=1;labelBackgroundColor=default;strokeColor=default;fontFamily=Helvetica;fontSize=11;fontColor=default;endArrow=none;endFill=0;" edge="1" parent="1" source="167" target="175">
                    <mxGeometry relative="1" as="geometry"/>
                </mxCell>
                <mxCell id="167" value="5" style="ellipse;whiteSpace=wrap;html=1;aspect=fixed;fillColor=#f8cecc;strokeColor=#b85450;fontStyle=0" vertex="1" parent="1">
                    <mxGeometry x="1020" y="660" width="40" height="40" as="geometry"/>
                </mxCell>
                <mxCell id="188" style="edgeStyle=none;shape=connector;rounded=1;html=1;labelBackgroundColor=default;strokeColor=default;fontFamily=Helvetica;fontSize=11;fontColor=default;endArrow=none;endFill=0;" edge="1" parent="1" source="169" target="176">
                    <mxGeometry relative="1" as="geometry"/>
                </mxCell>
                <mxCell id="169" value="6" style="ellipse;whiteSpace=wrap;html=1;aspect=fixed;fillColor=#f8cecc;strokeColor=#b85450;fontStyle=0" vertex="1" parent="1">
                    <mxGeometry x="1020" y="740" width="40" height="40" as="geometry"/>
                </mxCell>
                <mxCell id="171" value="7" style="ellipse;whiteSpace=wrap;html=1;aspect=fixed;fillColor=#f8cecc;strokeColor=#b85450;fontStyle=0" vertex="1" parent="1">
                    <mxGeometry x="1000" y="820" width="40" height="40" as="geometry"/>
                </mxCell>
                <mxCell id="172" value="8" style="ellipse;whiteSpace=wrap;html=1;aspect=fixed;fillColor=#f8cecc;strokeColor=#b85450;fontStyle=0" vertex="1" parent="1">
                    <mxGeometry x="940" y="860" width="40" height="40" as="geometry"/>
                </mxCell>
                <mxCell id="173" value="9" style="ellipse;whiteSpace=wrap;html=1;aspect=fixed;fillColor=#f8cecc;strokeColor=#b85450;fontStyle=0" vertex="1" parent="1">
                    <mxGeometry x="860" y="880" width="40" height="40" as="geometry"/>
                </mxCell>
                <mxCell id="174" value="10" style="ellipse;whiteSpace=wrap;html=1;aspect=fixed;fillColor=#f8cecc;strokeColor=#b85450;fontStyle=0" vertex="1" parent="1">
                    <mxGeometry x="780" y="860" width="40" height="40" as="geometry"/>
                </mxCell>
                <mxCell id="175" value="11" style="ellipse;whiteSpace=wrap;html=1;aspect=fixed;fillColor=#f8cecc;strokeColor=#b85450;fontStyle=0" vertex="1" parent="1">
                    <mxGeometry x="730" y="800" width="40" height="40" as="geometry"/>
                </mxCell>
                <mxCell id="176" value="12" style="ellipse;whiteSpace=wrap;html=1;aspect=fixed;fillColor=#f8cecc;strokeColor=#b85450;fontStyle=0" vertex="1" parent="1">
                    <mxGeometry x="720" y="720" width="40" height="40" as="geometry"/>
                </mxCell>
                <mxCell id="177" value="13" style="ellipse;whiteSpace=wrap;html=1;aspect=fixed;fillColor=#f8cecc;strokeColor=#b85450;fontStyle=0" vertex="1" parent="1">
                    <mxGeometry x="730" y="650" width="40" height="40" as="geometry"/>
                </mxCell>
            </root>
        </mxGraphModel>
    </diagram>
</mxfile>